<?xml version="1.0" encoding="utf-8"?>
<!-- Generator: Adobe Illustrator 18.0.0, SVG Export Plug-In . SVG Version: 6.00 Build 0)  -->
<!DOCTYPE svg PUBLIC "-//W3C//DTD SVG 1.1//EN" "http://www.w3.org/Graphics/SVG/1.1/DTD/svg11.dtd">
<svg version="1.1" id="Layer_1" xmlns="http://www.w3.org/2000/svg" xmlns:xlink="http://www.w3.org/1999/xlink" x="0px" y="0px"
	 viewBox="0 0 366 220.7" enable-background="new 0 0 366 220.7" xml:space="preserve">
<g>
	
		<rect x="134.7" y="172.6" fill="#5FCCF5" stroke="#21409A" stroke-width="6.384" stroke-miterlimit="10" width="111.8" height="43"/>
	<path fill="#FFFFFF" stroke="#21409A" stroke-width="6.384" stroke-miterlimit="10" d="M115.3,58.1c0,0-12.8,11.8-8.1,30.8
		c0,0,10.3,31.8,36.4,56.5v27.2h95.1v-25.5l12.9-11.2c0,0,9.3-7.2,9.2-19.6V45.7h-50.3"/>
	<g>
		<path fill="#5FCCF5" stroke="#21409A" stroke-width="6.384" stroke-miterlimit="10" d="M267.8,35.1c-0.2,0-0.5,0-0.7,0H102.4
			c-1,0-2,0.1-2.9,0.3C92.5,17.7,75.2,5.2,55,5.2C35.3,5.2,18.4,17.1,11,34h44v38.2H11c7.4,17,24.3,28.9,44,28.9
			c20.2,0,37.5-12.5,44.5-30.2c0.9,0.2,1.8,0.3,2.9,0.3h164.6c0.1,0,0.3,0,0.4,0c7,17.7,24.3,30.3,44.6,30.3
			c19.7,0,36.6-11.9,44-28.9h-44V34.4h44c-7.4-17-24.3-28.8-44-28.8C292.1,5.6,275,17.8,267.8,35.1z"/>
		<path fill="#FFFFFF" stroke="#21409A" stroke-width="6.384" stroke-miterlimit="10" d="M255.6,48.6c2.6,0,4.7,2.1,4.7,4.7l0,0
			c0,2.6-2.1,4.7-4.7,4.7H111.5c-2.6,0-4.7-2.1-4.7-4.7l0,0c0-2.6,2.1-4.7,4.7-4.7H255.6z"/>
		<path fill="none" stroke="#21409A" stroke-width="6.384" stroke-miterlimit="10" d="M57.4,17.8c19.4,0.5,34.7,16.5,34.3,35.9"/>
		<path fill="none" stroke="#21409A" stroke-width="6.384" stroke-miterlimit="10" d="M318.9,88.9c-19.4-0.5-34.7-16.5-34.3-35.9"/>
	</g>
	<path fill="#FFFFFF" stroke="#21409A" stroke-width="6.384" stroke-miterlimit="10" d="M172.5,52.9c0,8-6.5,14.4-14.4,14.4l0,0
		c-8,0-14.4-6.4-14.4-14.4v-27c0-8,6.5-14.4,14.4-14.4l0,0c8,0,14.4,6.5,14.4,14.4V52.9z"/>
	<path fill="#FFFFFF" stroke="#21409A" stroke-width="6.384" stroke-miterlimit="10" d="M203.2,50.8c0,8-6.5,14.4-14.4,14.4l0,0
		c-8,0-14.4-6.5-14.4-14.4V19.6c0-8,6.5-14.4,14.4-14.4l0,0c8,0,14.4,6.5,14.4,14.4V50.8z"/>
	<path fill="#FFFFFF" stroke="#21409A" stroke-width="6.384" stroke-miterlimit="10" d="M232.1,45.7c0,8-6.5,14.4-14.4,14.4l0,0
		c-8,0-14.4-6.5-14.4-14.4V25.9c0-8,6.4-14.4,14.4-14.4l0,0c8,0,14.4,6.5,14.4,14.4V45.7z"/>
	<path fill="#FFFFFF" stroke="#21409A" stroke-width="6.384" stroke-miterlimit="10" d="M260.9,45.7c0,8-6.5,14.4-14.4,14.4l0,0
		c-8,0-14.4-6.5-14.4-14.4V32.2c0-8,6.5-14.4,14.4-14.4l0,0c8,0,14.4,6.4,14.4,14.4V45.7z"/>
	<path fill="#FFFFFF" stroke="#21409A" stroke-width="6.384" stroke-linejoin="round" stroke-miterlimit="10" d="M173.1,120.7
		c5.5-43.4-30.8-53.4-30.8-53.4h41.9c19-4.1,19-27.9,19-27.9h-65.8l-22.1,18.7c0,0-12,13-8.1,30.8c0,0,9,29.3,36.4,56.5"/>
	<path fill="#FFFFFF" stroke="#21409A" stroke-width="6.384" stroke-miterlimit="10" d="M236.9,194.1c0,4.2-3.4,7.7-7.7,7.7
		c-4.2,0-7.7-3.4-7.7-7.7c0-4.2,3.4-7.7,7.7-7.7C233.4,186.4,236.9,189.9,236.9,194.1z"/>
</g>
</svg>
